<svg width="51" height="51" viewBox="0 0 51 51" fill="none" xmlns="http://www.w3.org/2000/svg">
<path d="M25.5 0C39.5867 0 51 11.4133 51 25.5C51 39.5867 39.5867 51 25.5 51C11.4133 51 0 39.5867 0 25.5C0 11.4133 11.4133 0 25.5 0ZM37.2115 23.752L23.279 9.81956C22.3125 8.85302 20.7496 8.85302 19.7933 9.81956L18.0454 11.5675C17.0788 12.5341 17.0788 14.097 18.0454 15.0532L28.4921 25.5L18.0454 35.9468C17.0788 36.9133 17.0788 38.4762 18.0454 39.4325L19.7933 41.1804C20.7599 42.147 22.3228 42.147 23.279 41.1804L37.2115 27.248C38.178 26.2815 38.178 24.7185 37.2115 23.752Z" fill="#82C868"/>
</svg>
