<svg viewBox="0 0 1440 506" fill="none" xmlns="http://www.w3.org/2000/svg">
<path fill-rule="evenodd" clip-rule="evenodd" d="M990 180C1039.71 180 1080 139.706 1080 90V292C1080 341.706 1120.29 382 1170 382C1219.71 382 1260 341.706 1260 292V153H1260.27C1263.84 199.434 1302.65 236 1350 236C1397.35 236 1436.16 199.434 1439.73 153H1440V146V0H1260H1080H990H900H720H540H360H180H0V236C0 285.706 40.2944 326 90 326C139.706 326 180 285.706 180 236V146C180 195.706 220.294 236 270 236C319.706 236 360 195.706 360 146V416C360 465.706 400.294 506 450 506C499.706 506 540 465.706 540 416V236C540 285.706 580.294 326 630 326C679.706 326 720 285.706 720 236V357C720 406.706 760.294 447 810 447C859.706 447 900 406.706 900 357V90C900 139.706 940.294 180 990 180Z" fill="#F27100"/>
</svg>
