<svg viewBox="0 0 1440 506" fill="none" xmlns="http://www.w3.org/2000/svg">
<path fill-rule="evenodd" clip-rule="evenodd" d="M450 180C400.294 180 360 139.706 360 90V292C360 341.706 319.706 382 270 382C220.294 382 180 341.706 180 292V153H179.732C176.16 199.434 137.35 236 90 236C42.6499 236 3.84021 199.434 0.268188 153H0V146V0H180H360H450H540H720H900H1080H1260H1440V236C1440 285.706 1399.71 326 1350 326C1300.29 326 1260 285.706 1260 236V146C1260 195.706 1219.71 236 1170 236C1120.29 236 1080 195.706 1080 146V416C1080 465.706 1039.71 506 990 506C940.294 506 900 465.706 900 416V236C900 285.706 859.706 326 810 326C760.294 326 720 285.706 720 236V357C720 406.706 679.706 447 630 447C580.294 447 540 406.706 540 357V90C540 139.706 499.706 180 450 180Z" fill="#862EA6"/>
</svg>
